<svg width="31" height="19" viewBox="0 0 31 19" fill="none" xmlns="http://www.w3.org/2000/svg">
<path d="M1.49993 0.166621C1.34534 0.164434 1.19185 0.192996 1.04838 0.250645C0.90492 0.308294 0.774345 0.393882 0.664248 0.502434C0.55415 0.610986 0.466724 0.740337 0.407052 0.88297C0.347379 1.0256 0.31665 1.17867 0.31665 1.33329C0.31665 1.4879 0.347379 1.64097 0.407052 1.7836C0.466724 1.92624 0.55415 2.05559 0.664248 2.16414C0.774345 2.27269 0.90492 2.35828 1.04838 2.41593C1.19185 2.47358 1.34534 2.50214 1.49993 2.49995H29.4999C29.6545 2.50214 29.808 2.47358 29.9515 2.41593C30.0949 2.35828 30.2255 2.27269 30.3356 2.16414C30.4457 2.05559 30.5331 1.92624 30.5928 1.7836C30.6525 1.64097 30.6832 1.4879 30.6832 1.33329C30.6832 1.17867 30.6525 1.0256 30.5928 0.88297C30.5331 0.740337 30.4457 0.610986 30.3356 0.502434C30.2255 0.393882 30.0949 0.308294 29.9515 0.250645C29.808 0.192996 29.6545 0.164434 29.4999 0.166621H1.49993ZM1.49993 8.33329C1.34534 8.3311 1.19185 8.35966 1.04838 8.41731C0.90492 8.47496 0.774345 8.56055 0.664248 8.6691C0.55415 8.77765 0.466724 8.907 0.407052 9.04964C0.347379 9.19227 0.31665 9.34534 0.31665 9.49995C0.31665 9.65457 0.347379 9.80764 0.407052 9.95027C0.466724 10.0929 0.55415 10.2223 0.664248 10.3308C0.774345 10.4394 0.90492 10.5249 1.04838 10.5826C1.19185 10.6402 1.34534 10.6688 1.49993 10.6666H29.4999C29.6545 10.6688 29.808 10.6402 29.9515 10.5826C30.0949 10.5249 30.2255 10.4394 30.3356 10.3308C30.4457 10.2223 30.5331 10.0929 30.5928 9.95027C30.6525 9.80764 30.6832 9.65457 30.6832 9.49995C30.6832 9.34534 30.6525 9.19227 30.5928 9.04964C30.5331 8.907 30.4457 8.77765 30.3356 8.6691C30.2255 8.56055 30.0949 8.47496 29.9515 8.41731C29.808 8.35966 29.6545 8.3311 29.4999 8.33329H1.49993ZM1.49993 16.5C1.34534 16.4978 1.19185 16.5263 1.04838 16.584C0.90492 16.6416 0.774345 16.7272 0.664248 16.8358C0.55415 16.9443 0.466724 17.0737 0.407052 17.2163C0.347379 17.3589 0.31665 17.512 0.31665 17.6666C0.31665 17.8212 0.347379 17.9743 0.407052 18.1169C0.466724 18.2596 0.55415 18.3889 0.664248 18.4975C0.774345 18.606 0.90492 18.6916 1.04838 18.7493C1.19185 18.8069 1.34534 18.8355 1.49993 18.8333H29.4999C29.6545 18.8355 29.808 18.8069 29.9515 18.7493C30.0949 18.6916 30.2255 18.606 30.3356 18.4975C30.4457 18.3889 30.5331 18.2596 30.5928 18.1169C30.6525 17.9743 30.6832 17.8212 30.6832 17.6666C30.6832 17.512 30.6525 17.3589 30.5928 17.2163C30.5331 17.0737 30.4457 16.9443 30.3356 16.8358C30.2255 16.7272 30.0949 16.6416 29.9515 16.584C29.808 16.5263 29.6545 16.4978 29.4999 16.5H1.49993Z" fill="black"/>
</svg>
